<mxfile host="Electron" modified="2024-03-18T14:28:32.767Z" agent="Mozilla/5.0 (Windows NT 10.0; Win64; x64) AppleWebKit/537.36 (KHTML, like Gecko) draw.io/24.0.4 Chrome/120.0.6099.109 Electron/28.1.0 Safari/537.36" etag="EV3D5wuhxtagg-RBufnq" version="24.0.4" type="device">
  <diagram id="R2lEEEUBdFMjLlhIrx00" name="Page-1">
    <mxGraphModel dx="1793" dy="1055" grid="1" gridSize="10" guides="1" tooltips="1" connect="1" arrows="1" fold="1" page="1" pageScale="1" pageWidth="827" pageHeight="1169" math="0" shadow="0" extFonts="Permanent Marker^https://fonts.googleapis.com/css?family=Permanent+Marker">
      <root>
        <mxCell id="0" />
        <mxCell id="1" parent="0" />
        <mxCell id="yxjPox5JHR0TBo2ibFnr-1" value="Order" style="rounded=0;whiteSpace=wrap;html=1;strokeWidth=2;fontSize=18;" parent="1" vertex="1">
          <mxGeometry x="385.64" y="130" width="120" height="60" as="geometry" />
        </mxCell>
        <mxCell id="gMB1EuxTQyxypPLOee5G-44" style="edgeStyle=orthogonalEdgeStyle;rounded=0;orthogonalLoop=1;jettySize=auto;html=1;exitX=0.5;exitY=0;exitDx=0;exitDy=0;entryX=0.5;entryY=1;entryDx=0;entryDy=0;strokeWidth=3;endArrow=none;endFill=0;strokeColor=#FF3333;" parent="1" target="yxjPox5JHR0TBo2ibFnr-1" edge="1">
          <mxGeometry relative="1" as="geometry">
            <mxPoint x="405.64" y="235.33000000000004" as="sourcePoint" />
          </mxGeometry>
        </mxCell>
        <mxCell id="1IosV1Cif7tGSlgBW0Az-1" value="order id" style="rounded=1;whiteSpace=wrap;html=1;fontStyle=4;strokeWidth=2;" parent="1" vertex="1">
          <mxGeometry x="365.64" y="235.82" width="60" height="30" as="geometry" />
        </mxCell>
        <mxCell id="gMB1EuxTQyxypPLOee5G-45" style="edgeStyle=orthogonalEdgeStyle;rounded=0;orthogonalLoop=1;jettySize=auto;html=1;exitX=0.5;exitY=0;exitDx=0;exitDy=0;entryX=0.5;entryY=1;entryDx=0;entryDy=0;strokeWidth=3;endArrow=none;endFill=0;strokeColor=#FF3333;" parent="1" source="1IosV1Cif7tGSlgBW0Az-3" target="yxjPox5JHR0TBo2ibFnr-1" edge="1">
          <mxGeometry relative="1" as="geometry" />
        </mxCell>
        <mxCell id="1IosV1Cif7tGSlgBW0Az-3" value="date" style="rounded=1;whiteSpace=wrap;html=1;strokeWidth=2;" parent="1" vertex="1">
          <mxGeometry x="455.64" y="235.32999999999998" width="60" height="30" as="geometry" />
        </mxCell>
        <mxCell id="1IosV1Cif7tGSlgBW0Az-5" value="Baking Good" style="rounded=0;whiteSpace=wrap;html=1;strokeWidth=2;fontSize=18;" parent="1" vertex="1">
          <mxGeometry x="232" y="546.2499999999999" width="120" height="60" as="geometry" />
        </mxCell>
        <mxCell id="U9dRSVIU7fYhtlELpQIB-1" value="" style="edgeStyle=orthogonalEdgeStyle;rounded=0;orthogonalLoop=1;jettySize=auto;html=1;startArrow=none;startFill=0;endArrow=circle;endFill=0;strokeWidth=3;" parent="1" source="1IosV1Cif7tGSlgBW0Az-11" target="1IosV1Cif7tGSlgBW0Az-5" edge="1">
          <mxGeometry relative="1" as="geometry" />
        </mxCell>
        <mxCell id="gMB1EuxTQyxypPLOee5G-33" value="N" style="edgeLabel;html=1;align=center;verticalAlign=middle;resizable=0;points=[];" parent="U9dRSVIU7fYhtlELpQIB-1" vertex="1" connectable="0">
          <mxGeometry x="-0.3974" y="1" relative="1" as="geometry">
            <mxPoint x="-2" y="-1" as="offset" />
          </mxGeometry>
        </mxCell>
        <mxCell id="gMB1EuxTQyxypPLOee5G-34" style="edgeStyle=orthogonalEdgeStyle;rounded=0;orthogonalLoop=1;jettySize=auto;html=1;exitX=0.5;exitY=0;exitDx=0;exitDy=0;entryX=0.5;entryY=1;entryDx=0;entryDy=0;strokeWidth=3;endArrow=none;endFill=0;strokeColor=#00FF00;" parent="1" source="1IosV1Cif7tGSlgBW0Az-11" target="hiKIkrZ9cHGI77sVrCej-2" edge="1">
          <mxGeometry relative="1" as="geometry">
            <Array as="points">
              <mxPoint x="292" y="396.25" />
              <mxPoint x="292" y="396.25" />
            </Array>
          </mxGeometry>
        </mxCell>
        <mxCell id="gMB1EuxTQyxypPLOee5G-36" value="1" style="edgeLabel;html=1;align=center;verticalAlign=middle;resizable=0;points=[];" parent="gMB1EuxTQyxypPLOee5G-34" vertex="1" connectable="0">
          <mxGeometry x="-0.1971" relative="1" as="geometry">
            <mxPoint as="offset" />
          </mxGeometry>
        </mxCell>
        <mxCell id="1IosV1Cif7tGSlgBW0Az-11" value="has" style="rhombus;whiteSpace=wrap;html=1;strokeWidth=2;" parent="1" vertex="1">
          <mxGeometry x="252" y="406.45000000000005" width="80" height="80" as="geometry" />
        </mxCell>
        <mxCell id="gMB1EuxTQyxypPLOee5G-10" style="edgeStyle=orthogonalEdgeStyle;rounded=0;orthogonalLoop=1;jettySize=auto;html=1;exitX=1;exitY=0.5;exitDx=0;exitDy=0;entryX=0;entryY=0.5;entryDx=0;entryDy=0;strokeWidth=3;strokeColor=#FF3333;endArrow=none;endFill=0;" parent="1" source="1IosV1Cif7tGSlgBW0Az-17" target="1IosV1Cif7tGSlgBW0Az-5" edge="1">
          <mxGeometry relative="1" as="geometry" />
        </mxCell>
        <mxCell id="1IosV1Cif7tGSlgBW0Az-17" value="recipe" style="rounded=1;whiteSpace=wrap;html=1;strokeWidth=2;" parent="1" vertex="1">
          <mxGeometry x="92" y="541.7499999999999" width="90" height="30" as="geometry" />
        </mxCell>
        <mxCell id="gMB1EuxTQyxypPLOee5G-22" value="1" style="edgeStyle=orthogonalEdgeStyle;rounded=0;orthogonalLoop=1;jettySize=auto;html=1;exitX=0.5;exitY=0;exitDx=0;exitDy=0;entryX=0.5;entryY=1;entryDx=0;entryDy=0;endArrow=none;endFill=0;strokeWidth=3;strokeColor=#00FF00;" parent="1" source="1IosV1Cif7tGSlgBW0Az-20" target="1IosV1Cif7tGSlgBW0Az-40" edge="1">
          <mxGeometry relative="1" as="geometry">
            <Array as="points">
              <mxPoint x="212" y="882.1600000000001" />
              <mxPoint x="212" y="882.1600000000001" />
            </Array>
          </mxGeometry>
        </mxCell>
        <mxCell id="1IosV1Cif7tGSlgBW0Az-20" value="Bakery Batch" style="rounded=0;whiteSpace=wrap;html=1;strokeWidth=2;fontSize=18;" parent="1" vertex="1">
          <mxGeometry x="152" y="885.3300000000002" width="120" height="60" as="geometry" />
        </mxCell>
        <mxCell id="gMB1EuxTQyxypPLOee5G-14" style="edgeStyle=orthogonalEdgeStyle;rounded=0;orthogonalLoop=1;jettySize=auto;html=1;exitX=0.5;exitY=0;exitDx=0;exitDy=0;entryX=0.5;entryY=1;entryDx=0;entryDy=0;strokeWidth=3;endArrow=none;endFill=0;strokeColor=#6666FF;" parent="1" source="1IosV1Cif7tGSlgBW0Az-21" target="1IosV1Cif7tGSlgBW0Az-50" edge="1">
          <mxGeometry relative="1" as="geometry" />
        </mxCell>
        <mxCell id="gMB1EuxTQyxypPLOee5G-18" value="N" style="edgeLabel;html=1;align=center;verticalAlign=middle;resizable=0;points=[];" parent="gMB1EuxTQyxypPLOee5G-14" vertex="1" connectable="0">
          <mxGeometry x="-0.0796" relative="1" as="geometry">
            <mxPoint as="offset" />
          </mxGeometry>
        </mxCell>
        <mxCell id="1IosV1Cif7tGSlgBW0Az-21" value="Ingredient" style="rounded=0;whiteSpace=wrap;html=1;strokeWidth=2;fontSize=18;" parent="1" vertex="1">
          <mxGeometry x="312" y="885.2" width="120" height="60" as="geometry" />
        </mxCell>
        <mxCell id="gMB1EuxTQyxypPLOee5G-26" style="edgeStyle=orthogonalEdgeStyle;rounded=0;orthogonalLoop=1;jettySize=auto;html=1;exitX=1;exitY=0.5;exitDx=0;exitDy=0;entryX=0;entryY=0.5;entryDx=0;entryDy=0;endArrow=none;endFill=0;strokeWidth=3;strokeColor=#FF3333;" parent="1" source="1IosV1Cif7tGSlgBW0Az-29" target="1IosV1Cif7tGSlgBW0Az-20" edge="1">
          <mxGeometry relative="1" as="geometry">
            <mxPoint x="-168" y="721.4200000000001" as="targetPoint" />
          </mxGeometry>
        </mxCell>
        <mxCell id="1IosV1Cif7tGSlgBW0Az-29" value="start time" style="rounded=1;whiteSpace=wrap;html=1;strokeWidth=2;" parent="1" vertex="1">
          <mxGeometry x="12" y="830.4200000000002" width="80" height="30" as="geometry" />
        </mxCell>
        <mxCell id="gMB1EuxTQyxypPLOee5G-24" style="edgeStyle=orthogonalEdgeStyle;rounded=0;orthogonalLoop=1;jettySize=auto;html=1;exitX=1;exitY=0.5;exitDx=0;exitDy=0;entryX=0;entryY=0.5;entryDx=0;entryDy=0;endArrow=none;endFill=0;strokeWidth=3;strokeColor=#FF3333;" parent="1" source="1IosV1Cif7tGSlgBW0Az-31" target="1IosV1Cif7tGSlgBW0Az-20" edge="1">
          <mxGeometry relative="1" as="geometry" />
        </mxCell>
        <mxCell id="1IosV1Cif7tGSlgBW0Az-31" value="end time" style="rounded=1;whiteSpace=wrap;html=1;strokeWidth=2;" parent="1" vertex="1">
          <mxGeometry x="12" y="900.2500000000001" width="80" height="30" as="geometry" />
        </mxCell>
        <mxCell id="1IosV1Cif7tGSlgBW0Az-40" value="consists of" style="rhombus;whiteSpace=wrap;html=1;strokeWidth=2;" parent="1" vertex="1">
          <mxGeometry x="172" y="751.7" width="80" height="80" as="geometry" />
        </mxCell>
        <mxCell id="gMB1EuxTQyxypPLOee5G-8" style="edgeStyle=orthogonalEdgeStyle;rounded=0;orthogonalLoop=1;jettySize=auto;html=1;exitX=1;exitY=0.5;exitDx=0;exitDy=0;entryX=0;entryY=0.5;entryDx=0;entryDy=0;strokeWidth=3;strokeColor=#FF3333;endArrow=none;endFill=0;" parent="1" source="1IosV1Cif7tGSlgBW0Az-46" target="1IosV1Cif7tGSlgBW0Az-5" edge="1">
          <mxGeometry relative="1" as="geometry" />
        </mxCell>
        <mxCell id="1IosV1Cif7tGSlgBW0Az-46" value="name" style="rounded=1;whiteSpace=wrap;html=1;fontStyle=0;strokeWidth=2;" parent="1" vertex="1">
          <mxGeometry x="92" y="582.0799999999999" width="90" height="30" as="geometry" />
        </mxCell>
        <mxCell id="gMB1EuxTQyxypPLOee5G-15" style="edgeStyle=orthogonalEdgeStyle;rounded=0;orthogonalLoop=1;jettySize=auto;html=1;exitX=0.5;exitY=0;exitDx=0;exitDy=0;entryX=0.75;entryY=1;entryDx=0;entryDy=0;strokeWidth=3;endArrow=none;endFill=0;strokeColor=#6666FF;" parent="1" source="1IosV1Cif7tGSlgBW0Az-50" target="1IosV1Cif7tGSlgBW0Az-5" edge="1">
          <mxGeometry relative="1" as="geometry" />
        </mxCell>
        <mxCell id="gMB1EuxTQyxypPLOee5G-16" value="N" style="edgeLabel;html=1;align=center;verticalAlign=middle;resizable=0;points=[];" parent="gMB1EuxTQyxypPLOee5G-15" vertex="1" connectable="0">
          <mxGeometry x="0.1881" relative="1" as="geometry">
            <mxPoint as="offset" />
          </mxGeometry>
        </mxCell>
        <mxCell id="1IosV1Cif7tGSlgBW0Az-50" value="is made of" style="rhombus;whiteSpace=wrap;html=1;strokeWidth=2;" parent="1" vertex="1">
          <mxGeometry x="332" y="751.7" width="80" height="80" as="geometry" />
        </mxCell>
        <mxCell id="gMB1EuxTQyxypPLOee5G-5" style="edgeStyle=orthogonalEdgeStyle;rounded=0;orthogonalLoop=1;jettySize=auto;html=1;exitX=0;exitY=0.5;exitDx=0;exitDy=0;entryX=1;entryY=0.5;entryDx=0;entryDy=0;endArrow=none;endFill=0;fillColor=#fa6800;strokeColor=#FF3333;strokeWidth=3;" parent="1" source="1IosV1Cif7tGSlgBW0Az-58" target="1IosV1Cif7tGSlgBW0Az-21" edge="1">
          <mxGeometry relative="1" as="geometry" />
        </mxCell>
        <mxCell id="1IosV1Cif7tGSlgBW0Az-58" value="&lt;span&gt;name&lt;/span&gt;" style="rounded=1;whiteSpace=wrap;html=1;fontStyle=0;strokeWidth=2;" parent="1" vertex="1">
          <mxGeometry x="492" y="881.8700000000001" width="80" height="30" as="geometry" />
        </mxCell>
        <mxCell id="gMB1EuxTQyxypPLOee5G-9" style="edgeStyle=orthogonalEdgeStyle;rounded=0;orthogonalLoop=1;jettySize=auto;html=1;exitX=1;exitY=0.5;exitDx=0;exitDy=0;entryX=0;entryY=0.5;entryDx=0;entryDy=0;strokeWidth=3;strokeColor=#FF3333;endArrow=none;endFill=0;" parent="1" source="1IosV1Cif7tGSlgBW0Az-61" target="1IosV1Cif7tGSlgBW0Az-5" edge="1">
          <mxGeometry relative="1" as="geometry" />
        </mxCell>
        <mxCell id="1IosV1Cif7tGSlgBW0Az-61" value="days of validity" style="rounded=1;whiteSpace=wrap;html=1;strokeWidth=2;" parent="1" vertex="1">
          <mxGeometry x="92" y="621.7499999999999" width="90" height="30" as="geometry" />
        </mxCell>
        <mxCell id="gMB1EuxTQyxypPLOee5G-27" style="edgeStyle=orthogonalEdgeStyle;rounded=0;orthogonalLoop=1;jettySize=auto;html=1;exitX=1;exitY=0.5;exitDx=0;exitDy=0;entryX=0;entryY=0.5;entryDx=0;entryDy=0;endArrow=none;endFill=0;strokeWidth=3;strokeColor=#FF3333;" parent="1" source="1IosV1Cif7tGSlgBW0Az-64" target="1IosV1Cif7tGSlgBW0Az-20" edge="1">
          <mxGeometry relative="1" as="geometry" />
        </mxCell>
        <mxCell id="1IosV1Cif7tGSlgBW0Az-64" value="&lt;u&gt;batch_id&lt;/u&gt;" style="rounded=1;whiteSpace=wrap;html=1;strokeWidth=2;" parent="1" vertex="1">
          <mxGeometry x="12" y="934.4200000000002" width="80" height="30" as="geometry" />
        </mxCell>
        <mxCell id="1IosV1Cif7tGSlgBW0Az-68" value="" style="edgeStyle=orthogonalEdgeStyle;rounded=0;orthogonalLoop=1;jettySize=auto;html=1;endArrow=none;endFill=0;strokeWidth=3;" parent="1" source="1IosV1Cif7tGSlgBW0Az-67" target="1IosV1Cif7tGSlgBW0Az-50" edge="1">
          <mxGeometry relative="1" as="geometry" />
        </mxCell>
        <mxCell id="1IosV1Cif7tGSlgBW0Az-67" value="amount" style="rounded=1;whiteSpace=wrap;html=1;strokeWidth=2;" parent="1" vertex="1">
          <mxGeometry x="435.64" y="776.7" width="80" height="30" as="geometry" />
        </mxCell>
        <mxCell id="gMB1EuxTQyxypPLOee5G-28" style="edgeStyle=orthogonalEdgeStyle;rounded=0;orthogonalLoop=1;jettySize=auto;html=1;exitX=1;exitY=0.5;exitDx=0;exitDy=0;entryX=0;entryY=0.5;entryDx=0;entryDy=0;endArrow=none;endFill=0;strokeWidth=3;strokeColor=#FF3333;" parent="1" source="1IosV1Cif7tGSlgBW0Az-69" target="1IosV1Cif7tGSlgBW0Az-20" edge="1">
          <mxGeometry relative="1" as="geometry" />
        </mxCell>
        <mxCell id="1IosV1Cif7tGSlgBW0Az-69" value="amount" style="rounded=1;whiteSpace=wrap;html=1;strokeWidth=2;" parent="1" vertex="1">
          <mxGeometry x="12" y="970.2500000000001" width="80" height="30" as="geometry" />
        </mxCell>
        <mxCell id="gMB1EuxTQyxypPLOee5G-6" style="edgeStyle=orthogonalEdgeStyle;rounded=0;orthogonalLoop=1;jettySize=auto;html=1;exitX=0;exitY=0.5;exitDx=0;exitDy=0;entryX=1;entryY=0.5;entryDx=0;entryDy=0;endArrow=none;endFill=0;fillColor=#fa6800;strokeColor=#FF3333;strokeWidth=3;" parent="1" source="1IosV1Cif7tGSlgBW0Az-72" target="1IosV1Cif7tGSlgBW0Az-21" edge="1">
          <mxGeometry relative="1" as="geometry" />
        </mxCell>
        <mxCell id="1IosV1Cif7tGSlgBW0Az-72" value="stock amount" style="rounded=1;whiteSpace=wrap;html=1;strokeWidth=2;" parent="1" vertex="1">
          <mxGeometry x="492" y="843.7" width="80" height="30" as="geometry" />
        </mxCell>
        <mxCell id="gMB1EuxTQyxypPLOee5G-57" style="edgeStyle=orthogonalEdgeStyle;rounded=0;orthogonalLoop=1;jettySize=auto;html=1;exitX=0.5;exitY=1;exitDx=0;exitDy=0;entryX=0.5;entryY=0;entryDx=0;entryDy=0;strokeWidth=3;endArrow=none;endFill=0;strokeColor=#FF3333;" parent="1" source="1IosV1Cif7tGSlgBW0Az-79" target="1IosV1Cif7tGSlgBW0Az-118" edge="1">
          <mxGeometry relative="1" as="geometry" />
        </mxCell>
        <mxCell id="1IosV1Cif7tGSlgBW0Az-79" value="Dispatch Route" style="rounded=0;whiteSpace=wrap;html=1;strokeWidth=2;fontSize=18;" parent="1" vertex="1">
          <mxGeometry x="555.89" y="546.25" width="120" height="60" as="geometry" />
        </mxCell>
        <mxCell id="1IosV1Cif7tGSlgBW0Az-82" value="Address" style="rounded=0;whiteSpace=wrap;html=1;strokeWidth=2;fontSize=18;" parent="1" vertex="1">
          <mxGeometry x="555.89" y="280.99" width="120" height="60" as="geometry" />
        </mxCell>
        <mxCell id="1IosV1Cif7tGSlgBW0Az-96" value="" style="edgeStyle=orthogonalEdgeStyle;rounded=0;orthogonalLoop=1;jettySize=auto;html=1;endArrow=none;endFill=0;exitX=0.5;exitY=0;exitDx=0;exitDy=0;strokeWidth=3;strokeColor=#6666FF;entryX=0.5;entryY=1;entryDx=0;entryDy=0;" parent="1" source="1IosV1Cif7tGSlgBW0Az-95" target="1IosV1Cif7tGSlgBW0Az-82" edge="1">
          <mxGeometry relative="1" as="geometry">
            <mxPoint x="315.89" y="538.0899999999999" as="sourcePoint" />
            <mxPoint x="155.89" y="607.0336363636363" as="targetPoint" />
          </mxGeometry>
        </mxCell>
        <mxCell id="gMB1EuxTQyxypPLOee5G-55" value="N" style="edgeLabel;html=1;align=center;verticalAlign=middle;resizable=0;points=[];" parent="1IosV1Cif7tGSlgBW0Az-96" vertex="1" connectable="0">
          <mxGeometry x="0.0524" y="-1" relative="1" as="geometry">
            <mxPoint y="1" as="offset" />
          </mxGeometry>
        </mxCell>
        <mxCell id="1IosV1Cif7tGSlgBW0Az-98" value="" style="edgeStyle=orthogonalEdgeStyle;rounded=0;orthogonalLoop=1;jettySize=auto;html=1;endArrow=none;endFill=0;strokeWidth=3;strokeColor=#6666FF;" parent="1" source="1IosV1Cif7tGSlgBW0Az-95" target="1IosV1Cif7tGSlgBW0Az-79" edge="1">
          <mxGeometry relative="1" as="geometry" />
        </mxCell>
        <mxCell id="4UMTEBpBObGb9LjHYVWk-4" value="N" style="edgeLabel;html=1;align=center;verticalAlign=middle;resizable=0;points=[];" parent="1IosV1Cif7tGSlgBW0Az-98" vertex="1" connectable="0">
          <mxGeometry x="0.6364" y="-3" relative="1" as="geometry">
            <mxPoint x="3" y="-19" as="offset" />
          </mxGeometry>
        </mxCell>
        <mxCell id="1IosV1Cif7tGSlgBW0Az-95" value="visits" style="rhombus;whiteSpace=wrap;html=1;strokeWidth=2;" parent="1" vertex="1">
          <mxGeometry x="575.89" y="406.45" width="80" height="80" as="geometry" />
        </mxCell>
        <mxCell id="gMB1EuxTQyxypPLOee5G-46" style="edgeStyle=orthogonalEdgeStyle;rounded=0;orthogonalLoop=1;jettySize=auto;html=1;exitX=0;exitY=0.5;exitDx=0;exitDy=0;entryX=1;entryY=0.5;entryDx=0;entryDy=0;strokeWidth=3;endArrow=none;endFill=0;strokeColor=#FF3333;" parent="1" source="1IosV1Cif7tGSlgBW0Az-106" target="1IosV1Cif7tGSlgBW0Az-82" edge="1">
          <mxGeometry relative="1" as="geometry">
            <mxPoint x="705.89" y="307.1800000000001" as="targetPoint" />
          </mxGeometry>
        </mxCell>
        <mxCell id="1IosV1Cif7tGSlgBW0Az-106" value="city" style="rounded=1;whiteSpace=wrap;html=1;fontStyle=0;strokeWidth=2;" parent="1" vertex="1">
          <mxGeometry x="735.89" y="256.45000000000005" width="80" height="30" as="geometry" />
        </mxCell>
        <mxCell id="gMB1EuxTQyxypPLOee5G-47" style="edgeStyle=orthogonalEdgeStyle;rounded=0;orthogonalLoop=1;jettySize=auto;html=1;exitX=0;exitY=0.5;exitDx=0;exitDy=0;entryX=1;entryY=0.5;entryDx=0;entryDy=0;strokeWidth=3;endArrow=none;endFill=0;strokeColor=#FF3333;" parent="1" source="1IosV1Cif7tGSlgBW0Az-110" target="1IosV1Cif7tGSlgBW0Az-82" edge="1">
          <mxGeometry relative="1" as="geometry">
            <mxPoint x="705.89" y="307.1800000000001" as="targetPoint" />
          </mxGeometry>
        </mxCell>
        <mxCell id="1IosV1Cif7tGSlgBW0Az-110" value="number" style="rounded=1;whiteSpace=wrap;html=1;fontStyle=0;strokeWidth=2;" parent="1" vertex="1">
          <mxGeometry x="735.89" y="296.45000000000005" width="80" height="30" as="geometry" />
        </mxCell>
        <mxCell id="gMB1EuxTQyxypPLOee5G-48" style="edgeStyle=orthogonalEdgeStyle;rounded=0;orthogonalLoop=1;jettySize=auto;html=1;exitX=0;exitY=0.5;exitDx=0;exitDy=0;entryX=1;entryY=0.5;entryDx=0;entryDy=0;strokeWidth=3;endArrow=none;endFill=0;strokeColor=#FF3333;" parent="1" source="1IosV1Cif7tGSlgBW0Az-112" target="1IosV1Cif7tGSlgBW0Az-82" edge="1">
          <mxGeometry relative="1" as="geometry">
            <mxPoint x="705.89" y="307.1800000000001" as="targetPoint" />
          </mxGeometry>
        </mxCell>
        <mxCell id="1IosV1Cif7tGSlgBW0Az-112" value="street" style="rounded=1;whiteSpace=wrap;html=1;fontStyle=0;strokeWidth=2;" parent="1" vertex="1">
          <mxGeometry x="735.89" y="337.45000000000005" width="80" height="30" as="geometry" />
        </mxCell>
        <mxCell id="1IosV1Cif7tGSlgBW0Az-120" style="edgeStyle=orthogonalEdgeStyle;rounded=0;orthogonalLoop=1;jettySize=auto;html=1;exitX=0.5;exitY=1;exitDx=0;exitDy=0;" parent="1" edge="1">
          <mxGeometry relative="1" as="geometry">
            <mxPoint x="405.64" y="265.33000000000004" as="sourcePoint" />
            <mxPoint x="405.64" y="265.33000000000004" as="targetPoint" />
          </mxGeometry>
        </mxCell>
        <mxCell id="1IosV1Cif7tGSlgBW0Az-118" value="dispatch id" style="rounded=1;whiteSpace=wrap;html=1;fontStyle=4" parent="1" vertex="1">
          <mxGeometry x="582.39" y="636.2500000000001" width="67" height="30" as="geometry" />
        </mxCell>
        <mxCell id="gMB1EuxTQyxypPLOee5G-4" style="edgeStyle=orthogonalEdgeStyle;rounded=0;orthogonalLoop=1;jettySize=auto;html=1;exitX=0;exitY=0.5;exitDx=0;exitDy=0;entryX=1;entryY=0.5;entryDx=0;entryDy=0;endArrow=none;endFill=0;fillColor=#fa6800;strokeColor=#FF3333;strokeWidth=3;" parent="1" source="VUPGE4Kk9DVWwrvv3WM--2" target="1IosV1Cif7tGSlgBW0Az-21" edge="1">
          <mxGeometry relative="1" as="geometry" />
        </mxCell>
        <mxCell id="VUPGE4Kk9DVWwrvv3WM--2" value="unit" style="rounded=1;whiteSpace=wrap;html=1;strokeWidth=2;" parent="1" vertex="1">
          <mxGeometry x="492" y="918.7" width="80" height="30" as="geometry" />
        </mxCell>
        <mxCell id="VUPGE4Kk9DVWwrvv3WM--3" style="edgeStyle=orthogonalEdgeStyle;rounded=0;orthogonalLoop=1;jettySize=auto;html=1;exitX=0.5;exitY=1;exitDx=0;exitDy=0;strokeWidth=2;" parent="1" source="VUPGE4Kk9DVWwrvv3WM--2" target="VUPGE4Kk9DVWwrvv3WM--2" edge="1">
          <mxGeometry relative="1" as="geometry" />
        </mxCell>
        <mxCell id="gMB1EuxTQyxypPLOee5G-42" style="edgeStyle=orthogonalEdgeStyle;rounded=0;orthogonalLoop=1;jettySize=auto;html=1;exitX=0;exitY=0.5;exitDx=0;exitDy=0;entryX=1;entryY=0.5;entryDx=0;entryDy=0;endArrow=circle;endFill=0;strokeWidth=3;" parent="1" source="VUPGE4Kk9DVWwrvv3WM--13" target="yxjPox5JHR0TBo2ibFnr-1" edge="1">
          <mxGeometry relative="1" as="geometry">
            <mxPoint x="992" y="397.4200000000001" as="targetPoint" />
          </mxGeometry>
        </mxCell>
        <mxCell id="gMB1EuxTQyxypPLOee5G-43" value="N" style="edgeLabel;html=1;align=center;verticalAlign=middle;resizable=0;points=[];" parent="gMB1EuxTQyxypPLOee5G-42" vertex="1" connectable="0">
          <mxGeometry x="0.4061" relative="1" as="geometry">
            <mxPoint x="21" y="-3" as="offset" />
          </mxGeometry>
        </mxCell>
        <mxCell id="gMB1EuxTQyxypPLOee5G-50" style="edgeStyle=orthogonalEdgeStyle;rounded=0;orthogonalLoop=1;jettySize=auto;html=1;exitX=0.5;exitY=1;exitDx=0;exitDy=0;entryX=0.5;entryY=0;entryDx=0;entryDy=0;strokeWidth=3;endArrow=none;endFill=0;strokeColor=#00FF00;" parent="1" source="VUPGE4Kk9DVWwrvv3WM--13" target="1IosV1Cif7tGSlgBW0Az-82" edge="1">
          <mxGeometry relative="1" as="geometry" />
        </mxCell>
        <mxCell id="gMB1EuxTQyxypPLOee5G-52" value="1" style="edgeLabel;html=1;align=center;verticalAlign=middle;resizable=0;points=[];" parent="gMB1EuxTQyxypPLOee5G-50" vertex="1" connectable="0">
          <mxGeometry x="-0.106" relative="1" as="geometry">
            <mxPoint as="offset" />
          </mxGeometry>
        </mxCell>
        <mxCell id="VUPGE4Kk9DVWwrvv3WM--13" value="ships to" style="rhombus;whiteSpace=wrap;html=1;strokeWidth=2;" parent="1" vertex="1">
          <mxGeometry x="575.89" y="119.99999999999997" width="80" height="80" as="geometry" />
        </mxCell>
        <mxCell id="eM6kBM86KEG9hvN14_vD-1" value="ingredient_id" style="rounded=1;whiteSpace=wrap;html=1;fontStyle=4;strokeWidth=2;" parent="1" vertex="1">
          <mxGeometry x="492" y="956.7" width="80" height="30" as="geometry" />
        </mxCell>
        <mxCell id="eM6kBM86KEG9hvN14_vD-4" value="" style="edgeStyle=orthogonalEdgeStyle;rounded=0;orthogonalLoop=1;jettySize=auto;html=1;endArrow=none;endFill=0;strokeWidth=3;entryX=1;entryY=0.5;entryDx=0;entryDy=0;" parent="1" source="eM6kBM86KEG9hvN14_vD-3" target="1IosV1Cif7tGSlgBW0Az-11" edge="1">
          <mxGeometry relative="1" as="geometry" />
        </mxCell>
        <mxCell id="eM6kBM86KEG9hvN14_vD-3" value="amount" style="rounded=1;whiteSpace=wrap;html=1;strokeWidth=2;" parent="1" vertex="1">
          <mxGeometry x="362" y="431.45" width="80" height="30" as="geometry" />
        </mxCell>
        <mxCell id="gMB1EuxTQyxypPLOee5G-49" style="edgeStyle=orthogonalEdgeStyle;rounded=0;orthogonalLoop=1;jettySize=auto;html=1;exitX=0;exitY=0.5;exitDx=0;exitDy=0;entryX=1;entryY=0.5;entryDx=0;entryDy=0;strokeWidth=3;endArrow=none;endFill=0;strokeColor=#FF3333;" parent="1" source="eM6kBM86KEG9hvN14_vD-5" target="1IosV1Cif7tGSlgBW0Az-82" edge="1">
          <mxGeometry relative="1" as="geometry">
            <mxPoint x="705.89" y="307.1800000000001" as="targetPoint" />
          </mxGeometry>
        </mxCell>
        <mxCell id="eM6kBM86KEG9hvN14_vD-5" value="address_id" style="rounded=1;whiteSpace=wrap;html=1;fontStyle=4;strokeWidth=2;" parent="1" vertex="1">
          <mxGeometry x="735.89" y="376.45000000000016" width="80" height="30" as="geometry" />
        </mxCell>
        <mxCell id="gMB1EuxTQyxypPLOee5G-11" style="edgeStyle=orthogonalEdgeStyle;rounded=0;orthogonalLoop=1;jettySize=auto;html=1;exitX=1;exitY=0.5;exitDx=0;exitDy=0;entryX=0;entryY=0.5;entryDx=0;entryDy=0;strokeWidth=3;strokeColor=#FF3333;endArrow=none;endFill=0;" parent="1" source="4UMTEBpBObGb9LjHYVWk-1" target="1IosV1Cif7tGSlgBW0Az-5" edge="1">
          <mxGeometry relative="1" as="geometry" />
        </mxCell>
        <mxCell id="4UMTEBpBObGb9LjHYVWk-1" value="goods_id" style="rounded=1;whiteSpace=wrap;html=1;fontStyle=4;strokeWidth=2;" parent="1" vertex="1">
          <mxGeometry x="92" y="500.75" width="90" height="30" as="geometry" />
        </mxCell>
        <mxCell id="gMB1EuxTQyxypPLOee5G-30" style="edgeStyle=orthogonalEdgeStyle;rounded=0;orthogonalLoop=1;jettySize=auto;html=1;exitX=1;exitY=0.5;exitDx=0;exitDy=0;entryX=0;entryY=0.5;entryDx=0;entryDy=0;strokeWidth=3;endArrow=none;endFill=0;strokeColor=#FF3333;" parent="1" source="4UMTEBpBObGb9LjHYVWk-5" target="hiKIkrZ9cHGI77sVrCej-2" edge="1">
          <mxGeometry relative="1" as="geometry">
            <mxPoint x="232" y="9.259999999999764" as="targetPoint" />
          </mxGeometry>
        </mxCell>
        <mxCell id="4UMTEBpBObGb9LjHYVWk-5" value="track id" style="rounded=1;whiteSpace=wrap;html=1;fontStyle=0;strokeColor=default;strokeWidth=2;" parent="1" vertex="1">
          <mxGeometry x="102" y="316.25" width="80" height="30" as="geometry" />
        </mxCell>
        <mxCell id="hiKIkrZ9cHGI77sVrCej-2" value="Packet" style="rounded=0;whiteSpace=wrap;html=1;strokeWidth=2;fontSize=18;" parent="1" vertex="1">
          <mxGeometry x="232" y="280.99" width="120" height="60" as="geometry" />
        </mxCell>
        <mxCell id="gMB1EuxTQyxypPLOee5G-37" style="edgeStyle=orthogonalEdgeStyle;rounded=0;orthogonalLoop=1;jettySize=auto;html=1;entryX=0;entryY=0.5;entryDx=0;entryDy=0;strokeWidth=3;endArrow=none;endFill=0;strokeColor=#00FF00;exitX=1;exitY=0.5;exitDx=0;exitDy=0;" parent="1" source="hiKIkrZ9cHGI77sVrCej-8" target="yxjPox5JHR0TBo2ibFnr-1" edge="1">
          <mxGeometry relative="1" as="geometry">
            <mxPoint x="362" y="367.09" as="sourcePoint" />
          </mxGeometry>
        </mxCell>
        <mxCell id="gMB1EuxTQyxypPLOee5G-38" value="1" style="edgeLabel;html=1;align=center;verticalAlign=middle;resizable=0;points=[];" parent="gMB1EuxTQyxypPLOee5G-37" vertex="1" connectable="0">
          <mxGeometry x="-0.1767" y="1" relative="1" as="geometry">
            <mxPoint as="offset" />
          </mxGeometry>
        </mxCell>
        <mxCell id="gMB1EuxTQyxypPLOee5G-39" style="edgeStyle=orthogonalEdgeStyle;rounded=0;orthogonalLoop=1;jettySize=auto;html=1;exitX=0.5;exitY=1;exitDx=0;exitDy=0;endArrow=none;endFill=0;strokeWidth=3;strokeColor=#6666FF;entryX=0.5;entryY=0;entryDx=0;entryDy=0;" parent="1" source="hiKIkrZ9cHGI77sVrCej-8" target="hiKIkrZ9cHGI77sVrCej-2" edge="1">
          <mxGeometry relative="1" as="geometry">
            <mxPoint x="282" y="367.74999999999994" as="sourcePoint" />
            <mxPoint x="242" y="367.09" as="targetPoint" />
          </mxGeometry>
        </mxCell>
        <mxCell id="gMB1EuxTQyxypPLOee5G-40" value="N" style="edgeLabel;html=1;align=center;verticalAlign=middle;resizable=0;points=[];" parent="gMB1EuxTQyxypPLOee5G-39" vertex="1" connectable="0">
          <mxGeometry x="0.3351" y="2" relative="1" as="geometry">
            <mxPoint x="7" y="-2" as="offset" />
          </mxGeometry>
        </mxCell>
        <mxCell id="hiKIkrZ9cHGI77sVrCej-8" value="Contains" style="rhombus;whiteSpace=wrap;html=1;strokeWidth=2;" parent="1" vertex="1">
          <mxGeometry x="252" y="120.00000000000003" width="80" height="80" as="geometry" />
        </mxCell>
        <mxCell id="gMB1EuxTQyxypPLOee5G-25" style="edgeStyle=orthogonalEdgeStyle;rounded=0;orthogonalLoop=1;jettySize=auto;html=1;exitX=1;exitY=0.5;exitDx=0;exitDy=0;entryX=0;entryY=0.5;entryDx=0;entryDy=0;endArrow=none;endFill=0;strokeWidth=3;strokeColor=#FF3333;" parent="1" source="K4UEc3mPuJcMg8ZBgmdW-1" target="1IosV1Cif7tGSlgBW0Az-20" edge="1">
          <mxGeometry relative="1" as="geometry" />
        </mxCell>
        <mxCell id="K4UEc3mPuJcMg8ZBgmdW-1" value="target end time" style="rounded=1;whiteSpace=wrap;html=1;strokeWidth=2;" parent="1" vertex="1">
          <mxGeometry x="12" y="864.4200000000002" width="80" height="30" as="geometry" />
        </mxCell>
        <mxCell id="YVB4Ubt2eOHDFTzSpa0c-1" value="packet id" style="rounded=1;whiteSpace=wrap;html=1;fontStyle=4;strokeWidth=2;" parent="1" vertex="1">
          <mxGeometry x="102" y="273.34" width="80" height="30" as="geometry" />
        </mxCell>
        <mxCell id="gMB1EuxTQyxypPLOee5G-29" style="edgeStyle=orthogonalEdgeStyle;rounded=0;orthogonalLoop=1;jettySize=auto;html=1;exitX=1;exitY=0.5;exitDx=0;exitDy=0;entryX=0;entryY=0.5;entryDx=0;entryDy=0;strokeWidth=3;endArrow=none;endFill=0;strokeColor=#FF3333;" parent="1" source="YVB4Ubt2eOHDFTzSpa0c-1" target="hiKIkrZ9cHGI77sVrCej-2" edge="1">
          <mxGeometry relative="1" as="geometry">
            <mxPoint x="232" y="9.259999999999764" as="targetPoint" />
          </mxGeometry>
        </mxCell>
        <mxCell id="Hs644zKvH1FHR-nO1le1-1" value="postal code" style="rounded=1;whiteSpace=wrap;html=1;fontStyle=0;strokeWidth=2;" vertex="1" parent="1">
          <mxGeometry x="735.89" y="215.53" width="80" height="30" as="geometry" />
        </mxCell>
        <mxCell id="Hs644zKvH1FHR-nO1le1-3" style="edgeStyle=orthogonalEdgeStyle;rounded=0;orthogonalLoop=1;jettySize=auto;html=1;exitX=0;exitY=0.5;exitDx=0;exitDy=0;entryX=1;entryY=0.5;entryDx=0;entryDy=0;strokeWidth=3;endArrow=none;endFill=0;strokeColor=#FF3333;" edge="1" parent="1" source="Hs644zKvH1FHR-nO1le1-1" target="1IosV1Cif7tGSlgBW0Az-82">
          <mxGeometry relative="1" as="geometry">
            <mxPoint x="685.89" y="321.25" as="targetPoint" />
            <mxPoint x="755.89" y="257.25" as="sourcePoint" />
          </mxGeometry>
        </mxCell>
        <mxCell id="Hs644zKvH1FHR-nO1le1-5" style="edgeStyle=orthogonalEdgeStyle;rounded=0;orthogonalLoop=1;jettySize=auto;html=1;exitX=0;exitY=0.5;exitDx=0;exitDy=0;entryX=1;entryY=0.5;entryDx=0;entryDy=0;endArrow=none;endFill=0;fillColor=#fa6800;strokeColor=#FF3333;strokeWidth=3;" edge="1" parent="1" source="eM6kBM86KEG9hvN14_vD-1" target="1IosV1Cif7tGSlgBW0Az-21">
          <mxGeometry relative="1" as="geometry">
            <mxPoint x="503" y="846.7" as="sourcePoint" />
            <mxPoint x="442" y="930.7" as="targetPoint" />
          </mxGeometry>
        </mxCell>
        <mxCell id="Hs644zKvH1FHR-nO1le1-6" style="edgeStyle=orthogonalEdgeStyle;rounded=0;orthogonalLoop=1;jettySize=auto;html=1;exitX=0.5;exitY=0;exitDx=0;exitDy=0;entryX=0.25;entryY=1;entryDx=0;entryDy=0;strokeWidth=3;endArrow=none;endFill=0;strokeColor=#6666FF;" edge="1" parent="1" source="1IosV1Cif7tGSlgBW0Az-40" target="1IosV1Cif7tGSlgBW0Az-5">
          <mxGeometry relative="1" as="geometry">
            <mxPoint x="392" y="761.25" as="sourcePoint" />
            <mxPoint x="332" y="616.25" as="targetPoint" />
          </mxGeometry>
        </mxCell>
        <mxCell id="Hs644zKvH1FHR-nO1le1-7" value="N" style="edgeLabel;html=1;align=center;verticalAlign=middle;resizable=0;points=[];" vertex="1" connectable="0" parent="Hs644zKvH1FHR-nO1le1-6">
          <mxGeometry x="0.1881" relative="1" as="geometry">
            <mxPoint as="offset" />
          </mxGeometry>
        </mxCell>
      </root>
    </mxGraphModel>
  </diagram>
</mxfile>
